HIERARCHY
ROOT Hips
{
	OFFSET 0.000000 0.000000 0.000000
	CHANNELS 6 Xposition Yposition Zposition Xrotation Yrotation Zrotation
	JOINT LeftUpLeg_virtual
	{
		OFFSET 0.000000 0.000000 0.000000
		CHANNELS 3 Xrotation Yrotation Zrotation
		JOINT LeftUpLeg
		{
			OFFSET 11.394100 -6.187798 -0.413800
			CHANNELS 3 Xrotation Yrotation Zrotation
			JOINT LeftLeg
			{
				OFFSET 0.430247 -32.302673 3.732800
				CHANNELS 3 Xrotation Yrotation Zrotation
				JOINT LeftFoot
				{
					OFFSET -0.430247 -48.264931 -6.423300
					CHANNELS 3 Xrotation Yrotation Zrotation
					JOINT LeftToeBase
					{
						OFFSET 4.230900 -16.068199 23.438400
						CHANNELS 3 Xrotation Yrotation Zrotation
						JOINT LeftToe_End
						{
							OFFSET 4.510700 0.695400 19.974600
							CHANNELS 3 Xrotation Yrotation Zrotation
							End Site
							{
								OFFSET 0 0 0
							}
						}
					}
				}
			}
		}
	}
	JOINT RightUpLeg_virtual
	{
		OFFSET 0.000000 0.000000 0.000000
		CHANNELS 3 Xrotation Yrotation Zrotation
		JOINT RightUpLeg
		{
			OFFSET -11.333700 -6.187798 -0.413800
			CHANNELS 3 Xrotation Yrotation Zrotation
			JOINT RightLeg
			{
				OFFSET -0.430392 -32.302628 3.733000
				CHANNELS 3 Xrotation Yrotation Zrotation
				JOINT RightFoot
				{
					OFFSET 0.430392 -48.264973 -6.423500
					CHANNELS 3 Xrotation Yrotation Zrotation
					JOINT RightToeBase
					{
						OFFSET -4.230900 -16.068199 23.438400
						CHANNELS 3 Xrotation Yrotation Zrotation
						JOINT RightToe_End
						{
							OFFSET -4.510700 0.695400 19.974600
							CHANNELS 3 Xrotation Yrotation Zrotation
							End Site
							{
								OFFSET 0 0 0
							}
						}
					}
				}
			}
		}
	}
	JOINT Spine_virtual
	{
		OFFSET 0.000000 0.000000 0.000000
		CHANNELS 3 Xrotation Yrotation Zrotation
		JOINT Spine
		{
			OFFSET -0.002400 12.777504 0.315300
			CHANNELS 3 Xrotation Yrotation Zrotation
			JOINT Spine1
			{
				OFFSET -0.002067 5.816869 0.032633
				CHANNELS 3 Xrotation Yrotation Zrotation
				JOINT Spine1_split
				{
					OFFSET -0.002067 5.816869 0.032633
					CHANNELS 3 Xrotation Yrotation Zrotation
					JOINT Spine2
					{
						OFFSET -0.002067 5.816869 0.032633
						CHANNELS 3 Xrotation Yrotation Zrotation
						JOINT Neck_virtual
						{
							OFFSET 0.000000 0.000000 0.000000
							CHANNELS 3 Xrotation Yrotation Zrotation
							JOINT Neck
							{
								OFFSET -0.003700 21.199493 -0.826900
								CHANNELS 3 Xrotation Yrotation Zrotation
								JOINT Head
								{
									OFFSET 0.000000 20.442200 4.834800
									CHANNELS 3 Xrotation Yrotation Zrotation
									JOINT HeadTop_End
									{
										OFFSET 0.000000 34.668396 4.968400
										CHANNELS 3 Xrotation Yrotation Zrotation
										End Site
										{
											OFFSET 0 0 0
										}
									}
								}
							}
						}
						JOINT LeftShoulder_virtual
						{
							OFFSET 0.000000 0.000000 0.000000
							CHANNELS 3 Xrotation Yrotation Zrotation
							JOINT LeftShoulder
							{
								OFFSET 3.288150 8.794197 -1.372250
								CHANNELS 3 Xrotation Yrotation Zrotation
								JOINT LeftShoulder_split
								{
									OFFSET 3.288150 8.794197 -1.372250
									CHANNELS 3 Xrotation Yrotation Zrotation
									JOINT LeftArm
									{
										OFFSET 11.953299 -2.279007 -0.146200
										CHANNELS 3 Xrotation Yrotation Zrotation
										JOINT LeftForeArm
										{
											OFFSET 18.448900 0.000000 0.000000
											CHANNELS 3 Xrotation Yrotation Zrotation
											JOINT LeftHand
											{
												OFFSET 29.527798 0.000000 0.000000
												CHANNELS 3 Xrotation Yrotation Zrotation
												End Site
												{
													OFFSET 0 0 0
												}
											}
										}
									}
								}
							}
						}
						JOINT RightShoulder_virtual
						{
							OFFSET 0.000000 0.000000 0.000000
							CHANNELS 3 Xrotation Yrotation Zrotation
							JOINT RightShoulder
							{
								OFFSET -3.249400 8.794197 -1.372250
								CHANNELS 3 Xrotation Yrotation Zrotation
								JOINT RightShoulder_split
								{
									OFFSET -3.249400 8.794197 -1.372250
									CHANNELS 3 Xrotation Yrotation Zrotation
									JOINT RightArm
									{
										OFFSET -11.953299 -2.279007 -0.146200
										CHANNELS 3 Xrotation Yrotation Zrotation
										JOINT RightForeArm
										{
											OFFSET -18.448900 0.000000 0.000000
											CHANNELS 3 Xrotation Yrotation Zrotation
											JOINT RightHand
											{
												OFFSET -29.527802 0.000000 0.000000
												CHANNELS 3 Xrotation Yrotation Zrotation
												End Site
												{
													OFFSET 0 0 0
												}
											}
										}
									}
								}
							}
						}
					}
				}
			}
		}
	}
}
MOTION
Frames: 7
Frame Time: 0.03333333
2.073457 89.222519 -2.415783 0.000000 0.000000 0.000000 8.152819 -67.029673 9.731323 -34.859274 15.094568 24.897650 32.551189 -6.431907 1.927653 -5.906258 -4.856778 -15.701128 -0.327343 -0.421027 -0.391872 0.000000 0.000000 0.000000 6.108888 -66.550447 8.630332 -33.312827 -20.996118 -32.764021 32.347346 6.461082 -4.026258 -10.333696 0.666482 21.303848 5.291176 0.423047 0.717344 0.000000 0.000000 0.000000 7.908049 -64.698578 9.330637 12.255068 -0.544018 -4.705791 7.364536 1.709762 -0.992977 0.559097 3.875164 -0.668687 0.000000 0.000000 0.000000 9.743699 1.797354 -2.118916 7.076761 4.941065 4.782863 -24.614228 52.820380 18.731232 0.000000 0.000000 0.000000 8.996844 1.133463 -1.058069 5.479249 -1.577752 -12.616680 -2.837664 -4.525579 2.502599 -34.197545 14.034195 -27.503109 6.717737 -53.771060 4.193159 0.000000 0.000000 0.000000 7.762726 1.694727 -0.598366 -7.962642 7.863299 15.025291 3.211970 0.586434 -1.742415 17.390705 -6.519951 33.003102 -19.797498 39.525721 20.095904 0.000000 0.000000 0.000000 
1.863338 89.465652 -2.064823 0.000000 0.000000 0.000000 7.718965 -66.938934 9.071657 -35.028099 14.736027 25.142107 33.016472 -6.149385 2.014536 -5.885870 -4.934640 -15.877422 -0.294933 -0.407225 -0.406096 0.000000 0.000000 0.000000 5.970410 -66.866992 8.265946 -32.356590 -20.635965 -32.104396 31.102824 6.540561 -3.992928 -9.626141 1.043439 21.993139 3.610259 0.380948 0.742530 0.000000 0.000000 0.000000 7.719038 -64.975432 8.933568 12.289309 -0.558902 -4.367821 7.382357 1.714707 -1.450484 0.099526 3.197666 -0.531718 0.000000 0.000000 0.000000 8.809717 1.818758 -2.309172 7.478647 4.963857 4.607034 -24.276159 54.025120 17.925729 0.000000 0.000000 0.000000 8.662526 1.161811 -1.532075 5.394887 -2.126292 -12.922712 -3.105945 -2.804249 2.114135 -33.234317 16.500520 -26.885967 7.406836 -51.494459 4.681201 0.000000 0.000000 0.000000 7.330507 1.863757 -0.792926 -9.197256 6.495065 15.123987 3.940061 -0.296112 -0.434561 15.283183 -5.536334 31.415643 -18.656385 38.907797 19.780506 0.000000 0.000000 0.000000 
1.562838 89.792130 -1.632614 0.000000 0.000000 0.000000 6.544430 -67.452407 7.586378 -35.060539 14.202937 25.630645 33.796066 -5.518223 2.085804 -5.862792 -4.813375 -15.925655 -0.376783 -0.362032 -0.428884 0.000000 0.000000 0.000000 5.237774 -67.669894 7.157180 -31.004162 -20.272194 -31.372476 29.540281 6.775944 -3.843730 -8.922777 1.575129 22.517892 2.534464 0.365294 0.811131 0.000000 0.000000 0.000000 6.908109 -65.435050 7.810683 12.041249 -0.596444 -3.945130 6.766217 1.403263 -1.564499 0.278362 2.744186 -0.238868 0.000000 0.000000 0.000000 7.479913 1.383123 -2.046311 7.545537 4.931828 3.753960 -22.028895 56.294313 14.560368 0.000000 0.000000 0.000000 7.581488 0.829466 -1.622948 4.928072 -3.414168 -14.523055 -3.934414 -1.771616 2.775499 -28.261152 20.588716 -26.293845 6.605220 -48.915609 4.171369 0.000000 0.000000 0.000000 6.383482 1.606637 -0.694217 -11.304866 3.957110 14.873615 4.569678 -1.150736 0.128405 13.472085 -9.936172 32.628644 -17.550613 40.945475 19.502953 0.000000 0.000000 0.000000 
1.218192 89.997040 -1.283970 0.000000 0.000000 0.000000 4.649912 -68.289823 5.389240 -35.086142 13.586442 26.235279 34.927993 -4.645417 2.158002 -5.925715 -4.593139 -15.837078 -0.496791 -0.293074 -0.468682 0.000000 0.000000 0.000000 3.696938 -68.514160 5.223695 -29.666729 -20.011623 -30.823336 28.259672 7.019583 -3.608706 -8.485853 2.052123 22.827735 2.184134 0.390254 0.842988 0.000000 0.000000 0.000000 5.634138 -65.918265 6.138754 11.535413 -0.681909 -3.502116 5.647462 0.883432 -1.366922 0.364022 1.829605 0.235334 0.000000 0.000000 0.000000 5.985027 0.611497 -1.440185 7.179116 4.918041 2.455252 -17.287204 58.891284 8.602695 0.000000 0.000000 0.000000 6.073015 0.247987 -1.373032 4.157639 -4.980025 -17.020435 -4.510417 -1.506928 4.358989 -20.466028 24.976105 -26.160157 5.196427 -47.778263 3.385665 0.000000 0.000000 0.000000 5.142704 1.029770 -0.346646 -14.050236 0.927409 13.481863 4.241102 -1.061950 -0.251200 12.471631 -19.612916 36.794444 -16.928912 46.895085 19.344243 0.000000 0.000000 0.000000 
0.905774 89.920120 -0.898746 0.000000 0.000000 0.000000 2.379202 -68.880299 2.871185 -35.261333 12.906394 26.799253 36.437341 -3.716081 2.245999 -6.063310 -4.519701 -15.704237 -0.613860 -0.221184 -0.471953 0.000000 0.000000 0.000000 1.728659 -68.820672 2.891015 -28.612784 -19.959397 -30.603714 27.831305 7.177834 -3.395277 -8.544422 2.196740 23.010757 1.709263 0.452923 0.716303 0.000000 0.000000 0.000000 4.197909 -66.264118 4.227122 10.776170 -0.772208 -3.084592 4.327375 0.302236 -0.929076 0.605239 0.832602 0.197215 0.000000 0.000000 0.000000 4.591453 -0.285873 -0.680539 6.245860 4.975658 0.909287 -10.119986 60.814386 0.528101 0.000000 0.000000 0.000000 4.377300 -0.371149 -0.909588 3.176345 -6.375797 -19.552330 -4.170171 -1.890420 6.427690 -11.495019 28.617468 -26.840161 4.101850 -48.411776 2.883409 0.000000 0.000000 0.000000 3.863053 0.328563 0.064083 -17.270323 -2.150363 10.221055 2.759827 -0.091703 -0.479689 11.948496 -33.668441 43.112560 -18.679500 58.717832 21.036834 0.000000 0.000000 0.000000 
0.693632 89.440338 -0.629787 0.000000 0.000000 0.000000 0.527900 -68.738573 0.825736 -35.790314 12.071700 27.140151 38.297315 -2.887051 2.373924 -6.139074 -4.842986 -15.599845 -0.788163 -0.165380 -0.352641 0.000000 0.000000 0.000000 0.234969 -68.182377 1.072583 -27.912371 -20.091772 -30.721580 28.424775 7.254895 -3.288552 -9.215665 1.875569 23.037475 0.822589 0.545961 0.385200 0.000000 0.000000 0.000000 3.067022 -65.995200 2.681242 9.839518 -0.736732 -2.719505 3.054330 -0.163560 -0.465891 0.893013 0.344429 -0.224366 0.000000 0.000000 0.000000 3.536075 -1.017966 -0.009356 4.963005 4.924903 -0.664838 -1.697659 61.456731 -8.116247 0.000000 0.000000 0.000000 2.851527 -0.807565 -0.385045 2.231656 -7.151905 -21.274176 -3.571403 -2.031372 7.743882 -3.296677 29.275137 -27.921786 3.625173 -50.705084 2.793199 0.000000 0.000000 0.000000 2.788070 -0.211847 0.342777 -20.869672 -4.627912 4.188316 0.342580 1.218101 0.646841 10.650304 -49.359916 49.605400 -35.915242 76.814835 37.549877 0.000000 0.000000 0.000000 
0.619969 88.646774 -0.573719 0.000000 0.000000 0.000000 -0.420546 -67.697106 -0.239277 -36.718448 11.001685 27.171199 40.223500 -2.262935 2.545650 -6.039669 -5.662418 -15.632698 -0.998293 -0.130023 -0.051519 0.000000 0.000000 0.000000 -0.423924 -66.668459 0.213215 -27.827113 -20.448210 -31.232601 30.199927 7.226312 -3.279892 -10.435767 1.043742 22.696230 0.432061 0.663942 -0.000704 0.000000 0.000000 0.000000 2.512369 -65.015560 1.843458 8.816170 -0.441081 -2.434209 2.051229 -0.361399 -0.153545 0.928487 0.433784 -0.471341 0.000000 0.000000 0.000000 2.955165 -1.370806 0.395683 3.502450 4.864955 -1.845918 5.848110 60.816756 -15.036602 0.000000 0.000000 0.000000 1.649318 -0.854011 -0.031804 1.458233 -7.128487 -21.690208 -3.005863 -1.787080 7.880618 2.338138 25.682100 -28.001460 4.104699 -53.612593 3.298335 0.000000 0.000000 0.000000 2.079049 -0.466369 0.295777 -24.493992 -5.605782 -4.401000 -2.477486 0.996101 3.385161 4.459425 -64.094085 51.341214 -155.370739 75.669945 156.059208 0.000000 0.000000 0.000000 
